<svg width="208" height="332" viewBox="0 0 208 332" fill="none" xmlns="http://www.w3.org/2000/svg">
<path opacity="0.2" d="M57.2806 113.593C57.4874 114.381 57.7886 115.151 58.1804 115.894C57.6426 115.197 57.3334 114.407 57.2806 113.593ZM61.9243 93.8019C64.811 88.5532 68.8545 83.7436 73.8696 79.5935C72.6325 76.7108 62.239 72.5552 68.4574 69.8731C71.7603 68.4551 75.1398 70.8044 75.8598 73.294C76.3539 75.0044 75.5958 77.1543 74.7954 78.8155C76.3452 77.5326 77.9529 76.2908 79.6186 75.0901C81.9132 73.4306 84.2618 71.8198 86.6333 70.2284C82.729 67.3822 79.0361 59.2435 84.2758 57.9096C92.0102 55.946 88.2797 67.0519 87.7386 69.1333C87.6722 69.1392 87.605 69.1327 87.5425 69.1143C87.4799 69.096 87.4238 69.0663 87.3787 69.0277C87.422 69.2176 87.4722 69.4219 87.533 69.6274C92.0722 66.5981 96.6796 63.6291 101.133 60.5279C100.578 60.028 100.064 59.5013 99.5936 58.951C98.4277 57.9167 97.4201 56.7792 96.5913 55.5615C95.342 53.6116 94.1404 50.5018 97.4531 49.3534C101.056 48.1019 102.764 51.6199 102.788 53.7184C102.805 55.1702 102.294 56.5495 102.028 57.972C101.945 58.4155 102.267 60.417 101.485 59.5554C101.518 59.7911 101.526 60.0285 101.509 60.2652C102.309 59.7059 103.102 59.1411 103.89 58.5706C103.85 58.4937 103.827 58.412 103.821 58.3291C103.816 58.2037 103.853 58.0794 103.927 57.9681C104.001 57.8569 104.11 57.7624 104.244 57.6937C104.378 57.6251 104.532 57.5845 104.692 57.5759C104.852 57.5673 105.012 57.5911 105.157 57.6448C106.199 56.8776 107.227 56.0987 108.239 55.3082C110.384 53.6292 112.562 51.9026 114.721 50.1388C114.252 49.8267 114.439 49.3941 114.001 49.0625C113.564 48.731 112.699 48.5496 112.188 48.2421C110.892 47.4165 109.823 46.3929 109.047 45.2336C107.769 43.4035 106.116 39.5582 109.856 38.6834C113.714 37.7803 115.67 41.4798 115.917 43.7936C115.806 45.7864 115.566 47.7735 115.196 49.747C119.195 46.4698 123.128 43.0691 126.691 39.6099C125.612 39.6028 122.548 37.8875 121.933 37.4194C120.424 36.2774 118.025 33.7533 120.673 32.4165C123.027 31.2309 125.93 32.9453 126.937 34.6141C127.347 35.9198 127.61 37.251 127.725 38.5925C129.2 37.1251 130.607 35.6499 131.917 34.1694C132.789 33.1855 133.607 32.1778 134.369 31.1463C134.163 31.0441 133.986 30.9089 133.85 30.7497C129.925 30.2346 124.919 25.4831 129.535 23.8277C131.73 23.0403 134.111 24.6627 135.185 25.9921C135.566 26.8781 135.855 27.7866 136.051 28.7089C138.228 25.2735 139.955 21.6739 141.205 17.9654C141.023 17.9344 140.859 17.8574 140.738 17.7462C140.617 17.6349 140.546 17.4957 140.537 17.3499C138.631 16.5076 137.127 15.806 135.797 14.1849C134.971 13.1784 133.487 10.878 135.911 10.3179C139.07 9.58968 141.056 13.3348 141.313 15.1811C141.344 15.3955 141.342 16.0187 141.333 16.5889C141.442 16.5773 141.554 16.5788 141.662 16.5935C142.39 14.297 142.97 11.9709 143.435 9.64072C141.711 9.21063 141.417 2.18024 142.566 1.17859C145.134 -1.06436 146.944 2.17301 146.806 3.88481C146.528 5.87148 145.58 7.76428 144.058 9.36848C143.908 9.54064 143.952 9.53301 143.912 9.29264C143.9 9.39262 143.848 9.48702 143.763 9.56237C143.878 10.5904 143.926 11.6224 143.907 12.6543C143.707 15.3553 143.309 18.0451 142.717 20.7106C142.574 21.357 142.41 21.9979 142.226 22.6332C143.452 21.8506 144.791 21.1836 146.215 20.6458C148.115 19.9833 151.041 19.2711 152.926 20.3889C153.283 20.5978 153.579 20.8642 153.794 21.1702C154.009 21.4762 154.138 21.8147 154.172 22.1629C154.206 22.5112 154.144 22.8611 153.991 23.1891C153.838 23.5171 153.597 23.8157 153.285 24.0647C151.762 25.3856 148.983 25.3384 146.909 25.2108C145.97 25.1529 140.96 24.8437 142.148 24.2069C141.981 24.2586 141.819 24.3188 141.661 24.3871C141.551 24.6983 141.436 25.0087 141.316 25.3183C141.346 25.3317 141.371 25.3459 141.402 25.3592C141.368 25.3477 141.344 25.3347 141.315 25.3231C140.109 28.4221 138.369 31.3776 136.143 34.1075C136.976 33.8449 137.847 33.6639 138.736 33.5685C141.35 33.3109 146.848 34.8848 143.922 37.5872C141.117 40.1771 136.754 37.4011 133.573 37.0186C130.443 40.3736 127.084 43.5943 123.512 46.6666C123.623 46.6917 123.727 46.7344 123.817 46.7922C123.906 46.8499 123.979 46.9215 124.032 47.0024C125.463 46.4386 126.955 45.6327 128.279 45.4135C130.189 45.1013 134.107 44.9065 135.55 46.2325C137.325 47.8639 135.42 49.19 133.321 49.5042C130.279 49.9587 126.297 48.8066 123.37 48.0284C123.203 48.0554 123.031 48.0476 122.87 48.0059C122.709 47.9642 122.564 47.8901 122.451 47.7909L122.258 47.7403C118.649 50.8145 114.895 53.7958 111.167 56.7112L111.285 56.7063C112.245 56.1973 113.308 55.8203 114.43 55.5917C117.045 55.0963 120.121 55.0927 122.241 56.5569C124.361 58.021 125.1 60.5735 122.913 62.2157C118.535 65.5032 112.092 58.0146 109.884 57.7031C106.096 60.6344 102.09 63.3742 98.0206 66.0581C98.4849 65.9456 98.9624 65.87 99.4459 65.8324C103.434 65.5348 112.793 69.3248 107.896 73.0597C103.628 76.3146 98.696 70.0551 95.2594 67.8671C91.4248 70.3689 87.5705 72.8534 83.8233 75.4347C85.8526 74.977 88.0072 74.9867 90.0297 75.4627C92.2956 75.9939 95.9506 77.3202 94.5168 79.6948C93.0582 82.109 88.6689 81.0122 86.3821 80.2469C85.1362 79.8305 82.6362 78.4193 80.4408 77.8262C74.4118 82.1117 69.3173 87.1406 65.3589 92.714C62.9241 96.2705 61.0386 100.042 59.7423 103.948C58.9107 106.437 57.2648 110.613 57.5909 113.849C56.0276 107.373 58.8677 99.5934 61.9243 93.8019ZM143.963 12.7268C144.288 12.7134 145.337 10.0746 145.698 9.67462C146.794 8.53205 148.234 7.62022 149.89 7.02077C152.507 6.00441 155.992 7.18342 154.537 9.86925C153.375 12.0141 149.878 12.5797 146.824 12.7051C145.781 12.7497 144.79 12.7413 143.963 12.7268Z" fill="#C1DEE2" fill-opacity="0.5"/>
<g opacity="0.5">
<path opacity="0.5" d="M132.759 86.6452C135.887 83.1478 141.698 74.2653 146.104 73.0156C148.942 72.2107 148.115 80.5369 148.149 82.1251C148.166 88.2585 147.642 94.3855 146.58 100.462C144.884 111.447 139.33 121.231 131.715 130.579C127.797 135.39 123.2 140.259 116.834 143.261C113.904 144.643 110.378 144.875 107.484 146.065C104.114 147.452 105.95 146.331 104.43 149.083C102.321 152.904 101.646 157.832 100.671 161.909C96.1908 180.624 85.342 279.553 87.2229 298.588C87.3897 300.276 84.387 300.679 84.2373 298.619C83.441 287.698 90.3343 212.065 93.813 187.332C97.2917 162.598 100.811 140.747 104.34 132.189C108.621 121.807 116.354 109.324 122.79 99.6415C125.745 95.1424 129.075 90.8009 132.759 86.6452Z" fill="#69A1AC" fill-opacity="0.5"/>
<path opacity="0.5" d="M155.993 207.953C164.139 203.267 172.956 212.11 165.584 216.797C161.51 219.387 157.25 218.465 154.851 216.307C153.294 217.794 151.837 219.348 150.437 220.662C146.171 224.664 142.139 228.761 138.286 232.954C130.283 241.665 123.422 250.866 116.249 259.901C109.173 268.817 102.149 277.779 95.7341 286.921C90.2993 294.667 83.0566 303.779 81.1943 312.27C84.0175 294.261 94.7307 276.951 107.489 261.076C120.142 245.329 134.663 228.134 154.255 215.707C153.697 215.115 153.299 214.44 153.084 213.723C152.869 213.007 152.842 212.263 153.004 211.538C153.167 210.813 153.515 210.122 154.029 209.505C154.543 208.889 155.211 208.361 155.993 207.953Z" fill="#C1DEE2" fill-opacity="0.5"/>
<path opacity="0.5" d="M1.42491 164.032C5.98297 164.732 13.4313 172.81 17.1886 175.889C21.6213 179.554 25.7421 183.443 29.5241 187.531C37.7742 196.339 45.0746 205.668 51.3498 215.424C61.5839 231.237 69.7211 247.83 75.6337 264.943C79.2031 275.596 81.6671 286.458 83.0015 297.423C83.2645 299.479 86.0161 315.335 82.051 315.762C78.4852 316.147 79.5861 303.723 79.414 302.033C77.4698 282.968 71.6425 264.416 63.5402 246.445C61.7747 242.53 60.1352 237.735 57.3128 234.212C55.2799 231.675 57.2979 232.56 53.7261 231.599C50.6585 230.774 47.1635 230.975 44.0222 229.965C37.1981 227.772 31.7313 223.515 26.9453 219.234C17.634 210.912 10.2595 201.91 6.41725 191.247C4.1696 185.362 2.43813 179.364 1.23496 173.294C0.95413 171.718 -1.51075 163.582 1.42491 164.032Z" fill="#69A1AC" fill-opacity="0.5"/>
<path opacity="0.5" d="M19.4124 29.6015C36.5824 52.9337 50.6923 78.5632 59.8025 104.523C65.3222 120.252 69.1831 136.392 73.0186 152.414C78.9592 177.224 84.5743 202.032 86.1721 227.286C87.7796 252.682 90.9581 281.977 80.3454 306.433C85.6469 281.599 80.5995 255.164 79.7056 230.175C79.2787 218.246 78.0407 206.433 76.4176 194.573C74.8421 183.069 72.2685 171.619 69.8721 160.205C68.7046 154.646 67.4907 149.094 66.2303 143.549C65.8578 141.893 65.6999 136.982 64.3606 135.852C63.0212 134.721 56.1309 134.247 53.9707 133.414C49.596 131.643 45.54 129.425 41.9084 126.819C34.9667 121.979 28.9278 115.657 24.1611 109.425C13.1328 95.0021 8.72376 77.4017 8.94648 60.699C8.98894 57.4561 15.6424 22.5354 12.9719 22.0545C13.1328 21.907 13.285 21.7541 13.4286 21.5957C15.4507 24.2507 17.4453 26.9193 19.4124 29.6015Z" fill="#89C5CC" fill-opacity="0.5"/>
<path opacity="0.5" d="M204.734 113.752C205 113.452 206.723 111.37 205.852 111.503C207.623 111.232 203.424 113.799 207.829 112.224C205.737 113.772 206.945 115.785 206.972 117.865C206.906 121.245 206.407 124.61 205.482 127.911C204.245 133.136 202.239 138.231 199.507 143.095C193.453 153.698 183.173 163.906 170.969 170.535C164.945 173.808 159.041 174.922 152.169 176.43C147.829 177.382 147.485 179.141 145.181 182.442C140.384 189.315 135.674 196.164 131.444 203.269C126.394 211.754 121.491 220.248 116.866 228.882C101.285 257.962 88.6033 288.093 81.9401 319.274C81.777 300.899 87.2021 281.977 94.0448 264.459C99.0297 251.698 105.516 239.398 112.44 227.22C114.118 224.27 116.659 220.476 117.371 217.219C117.87 214.937 116.346 212.743 115.647 210.338C112.925 200.978 113.12 190.493 115.51 181.08C118.145 170.702 125.766 165.886 138.657 164.416C143.372 163.878 149.364 164.075 153.687 162.5C158.397 160.785 160.34 155.146 163.018 151.527C170.192 141.719 178.765 132.581 188.572 124.289C191.291 122.029 194.213 119.924 197.317 117.991C199.272 116.767 203.403 115.259 204.734 113.752Z" fill="#89C5CC" fill-opacity="0.5"/>
<path opacity="0.5" d="M56.4968 302.774C56.4188 302.359 56.4558 301.936 56.6051 301.533C56.7545 301.131 57.0127 300.758 57.3623 300.441C57.7119 300.124 58.1446 299.869 58.6311 299.695C59.1175 299.52 59.6461 299.43 60.1811 299.43H105.932C106.467 299.43 106.995 299.52 107.482 299.695C107.968 299.869 108.401 300.124 108.75 300.441C109.1 300.758 109.358 301.131 109.508 301.533C109.657 301.936 109.694 302.359 109.616 302.774L106.08 321.562C105.558 324.333 103.783 326.865 101.077 328.695C98.3712 330.525 94.9158 331.532 91.3412 331.532H74.7715C71.197 331.532 67.7415 330.525 65.0358 328.695C62.3301 326.865 60.5544 324.333 60.0329 321.562L56.4968 302.774Z" fill="#C1DEE2" fill-opacity="0.5"/>
</g>
<path d="M20.4248 293.701C20.4248 306.126 21.6762 316.199 38.4723 316.199C55.2684 316.199 56.5198 306.126 56.5198 293.701" fill="#F2F2F2" fill-opacity="0.5"/>
<path d="M43.468 285.949C42.859 286.774 42.3085 287.625 41.8187 288.497C41.7914 286.695 41.9423 284.895 42.2701 283.111C42.8556 280.001 43.751 276.906 44.5913 273.816C45.1954 271.598 45.1574 267.608 47.451 265.839C48.0797 265.456 48.2309 266.206 48.2309 266.532C48.2391 266.601 48.2309 265.203 47.6186 265.446C43.9901 266.915 42.8147 271.531 41.6534 273.843C39.8821 277.156 38.6295 280.625 37.9229 284.175C37.7744 285.056 37.6908 285.944 37.6726 286.833C37.549 286.596 37.4335 286.358 37.3054 286.122C35.1385 282.152 32.2979 278.429 28.8604 275.055C27.9926 274.205 17.0842 265.797 16.2306 267.084C16.329 267.285 16.5172 267.451 16.7602 267.551C16.7758 267.565 16.7766 267.558 16.7669 267.537C17.4075 268.347 19.2288 269.6 19.7964 270.31C21.1546 272.101 22.3786 273.953 23.4621 275.855C25.8458 279.789 28.0552 283.762 30.1982 287.744C30.6973 288.671 31.2173 289.593 31.7476 290.513C26.2786 284.33 18.983 278.721 8.93945 275.509C12.366 276.876 14.6186 279.448 16.9352 281.418C19.7294 283.795 22.671 286.107 25.4711 288.481C28.7725 291.283 32.6579 294.229 35.8334 297.327C38.9099 302.388 41.8984 307.454 43.7443 312.773C42.9882 310.935 43.6847 308.396 43.5559 306.47C43.4453 304.934 43.2287 303.404 42.907 301.887C43.2942 302.529 43.5874 303.203 43.7808 303.897C43.6423 302.826 43.4829 301.763 43.3123 300.705C43.7518 299.713 44.1831 298.79 44.4743 298.029C45.9294 294.075 47.8345 290.231 50.1669 286.544C52.4528 283.035 54.9949 279.633 57.7805 276.354C59.0871 274.809 60.4115 273.271 61.7285 271.729C62.5896 270.72 63.4098 269.103 64.6091 268.138C56.8568 273.692 48.3873 279.286 43.4687 285.949" fill="#F2F2F2" fill-opacity="0.5"/>
</svg>
